<svg width="24" height="24" viewBox="0 0 24 24" fill="none" xmlns="http://www.w3.org/2000/svg">
<g clip-path="url(#clip0_13_82)">
<path d="M20.5778 11.839C20.2121 11.4732 19.5118 11.3578 19.0915 11.7782L18.313 12.5568L18.4428 11.1658L18.4454 11.1346C18.4454 11.1326 18.4454 11.1307 18.4454 11.1286C18.4483 11.101 18.4536 11.0741 18.4536 11.046C18.4536 10.8276 18.3686 10.6224 18.2141 10.4683L17.611 9.8652C17.495 9.74928 17.347 9.67704 17.1905 9.648C17.1614 9.49104 17.087 9.34104 16.9658 9.21984L16.3625 8.61696C16.2466 8.50104 16.0982 8.42856 15.942 8.39976C15.913 8.2428 15.8386 8.0928 15.7176 7.97184L15.1142 7.36848C14.995 7.24944 14.8476 7.1748 14.6933 7.14504C14.6628 6.9864 14.586 6.84048 14.4691 6.72384L13.866 6.12072C13.5576 5.81208 13.0193 5.81184 12.7109 6.12072L11.7658 7.06584L11.4742 6.77376L11.3558 6.38544C11.3054 6.21864 11.2138 6.07536 11.095 5.96136L12.1922 4.86408C12.5854 4.47096 12.5854 3.8316 12.1922 3.43872L9.88944 1.13592C9.49656 0.7428 8.85672 0.7428 8.46408 1.13592L7.04664 2.55312L6.61392 2.1204C6.47328 1.97976 6.24552 1.97976 6.10488 2.1204L4.72992 3.49536C4.58928 3.63576 4.58928 3.864 4.72992 4.0044L5.16264 4.43712L3.66624 5.93352C3.27312 6.32664 3.27312 6.966 3.66624 7.35888L5.96928 9.66192C5.988 9.68064 6.00984 9.69408 6.02952 9.71112C5.3004 10.7362 4.89552 11.9674 4.8864 13.2259L4.8768 14.417C4.87464 14.7449 4.7448 15.0554 4.51176 15.2904L3.25992 16.5422L3.03672 16.3298C2.9652 16.2617 2.86896 16.2252 2.77032 16.231C2.67168 16.236 2.57952 16.2811 2.51544 16.3562L0.92664 18.2107C0.92472 18.2131 0.92424 18.216 0.92232 18.2184C0.89616 18.2503 0.87552 18.2866 0.8616 18.3262C0.85968 18.3317 0.858 18.3372 0.85632 18.3427C0.84672 18.3754 0.83976 18.4092 0.83976 18.445V22.8002C0.83976 22.9992 1.00104 23.1602 1.19976 23.1602H7.5996C7.70856 23.1602 7.81176 23.1108 7.87992 23.0261L8.55192 22.1916C8.67192 22.0426 8.6544 21.8256 8.51208 21.6977L7.97304 21.2143L9.3552 19.8341C9.59304 19.5962 9.89376 19.4381 10.2247 19.3766L11.7406 19.0961C12.5803 18.943 13.3426 18.5422 13.944 17.9381L14.1528 17.7293C14.208 17.8488 14.2812 17.958 14.37 18.0468L16.6634 20.3402C16.8538 20.5306 17.107 20.6354 17.3762 20.6354C17.6455 20.6354 17.8987 20.5306 18.089 20.3402L19.5792 18.8501L20.0107 19.2816C20.081 19.3519 20.1732 19.387 20.2654 19.387C20.3575 19.387 20.4497 19.3519 20.52 19.2816L21.8911 17.9107C21.9586 17.8433 21.9965 17.7516 21.9965 17.6561C21.9965 17.5606 21.9586 17.4691 21.8911 17.4014L21.4596 16.9699L22.8715 15.558C23.2644 15.1651 23.2644 14.5258 22.8715 14.1326L20.5781 11.8392L20.5778 11.839ZM17.5457 12.845L17.2687 12.5688L17.6215 12.216L17.5862 12.5954C17.5783 12.6804 17.5634 12.763 17.5457 12.845ZM16.7597 13.0778L17.2406 13.5576C17.1641 13.6745 17.0801 13.7861 16.98 13.8859L16.1239 14.7415L15.6101 14.2274L16.7597 13.0778ZM17.705 10.9776C17.7283 11.0006 17.7331 11.027 17.7334 11.0453C17.7317 11.0554 17.7286 11.0647 17.7278 11.075L17.7274 11.0789C17.723 11.0906 17.7163 11.1029 17.7048 11.1144L16.5053 12.3139C16.5053 12.3139 16.5048 12.3142 16.5046 12.3144C16.5046 12.3144 16.5043 12.3149 16.5041 12.3151L14.8478 13.9716C14.8478 13.9716 14.8469 13.9721 14.8464 13.9726C14.8459 13.973 14.8459 13.9735 14.8454 13.974L14.1744 14.645C14.1362 14.683 14.075 14.6827 14.0374 14.645L13.4342 14.0417C13.4107 14.0182 13.4059 13.9915 13.4059 13.9733C13.4059 13.956 13.4114 13.931 13.4318 13.9085C13.4328 13.9075 13.4342 13.9068 13.4352 13.9058L14.106 13.235C14.1062 13.235 14.1062 13.235 14.1062 13.2348L16.9656 10.3754C16.9673 10.3738 16.9682 10.3718 16.9697 10.3704C17.0148 10.3286 17.0566 10.3296 17.1014 10.3745L17.7048 10.9778L17.705 10.9776ZM16.4568 9.72912C16.4933 9.7656 16.4938 9.82392 16.4597 9.86184C16.4585 9.86304 16.4568 9.86376 16.4556 9.86496L13.5962 12.7243L13.596 12.7246L12.9254 13.3951C12.9238 13.3968 12.9228 13.3985 12.9214 13.4002C12.8765 13.4419 12.8345 13.4414 12.7894 13.3961L12.1862 12.7932C12.1498 12.7567 12.1493 12.6986 12.1834 12.6605C12.1846 12.6593 12.1862 12.6583 12.1874 12.6571L12.8518 11.9928C12.8518 11.9928 12.852 11.9928 12.8522 11.9926C12.8522 11.9926 12.8522 11.9923 12.8525 11.9921L15.7178 9.12648C15.7193 9.12504 15.7202 9.12312 15.7219 9.12168C15.7668 9.07968 15.8088 9.0804 15.8539 9.12552L16.4573 9.7284L16.4568 9.72912ZM15.2086 8.48088C15.245 8.51736 15.2455 8.57568 15.2114 8.6136C15.2102 8.6148 15.2086 8.61552 15.2074 8.61672L14.0182 9.80592C14.0165 9.80736 14.0143 9.80784 14.0126 9.80928C14.0105 9.8112 14.01 9.81408 14.0078 9.816L11.6767 12.1471C11.6753 12.1486 11.6743 12.1505 11.6726 12.1519C11.6278 12.1939 11.5858 12.1932 11.5406 12.1481L10.9373 11.545C10.9008 11.5085 10.9006 11.4504 10.9342 11.4125C10.9356 11.4113 10.937 11.4103 10.9385 11.4091L11.6196 10.728C11.6196 10.728 11.621 10.7268 11.6218 10.7261C11.622 10.7258 11.6222 10.7254 11.6225 10.7251L14.4691 7.87848C14.4703 7.87728 14.4713 7.8756 14.4725 7.8744C14.491 7.85808 14.5135 7.84896 14.5366 7.84896C14.5615 7.84896 14.5862 7.85832 14.6052 7.87728L15.2083 8.4804L15.2086 8.48088ZM13.2202 6.62952C13.2437 6.606 13.2703 6.6012 13.2886 6.6012C13.307 6.6012 13.3337 6.60624 13.3572 6.62952L13.9606 7.23288C13.9841 7.25616 13.9886 7.2828 13.9886 7.30128C13.9886 7.31856 13.9831 7.34328 13.9627 7.36584C13.9615 7.3668 13.9603 7.36752 13.9591 7.36872L12.7579 8.56992C12.7562 8.5716 12.7538 8.57208 12.7522 8.57376C12.751 8.5752 12.7505 8.57712 12.7493 8.57832L10.4285 10.8991C10.4273 10.9003 10.4263 10.902 10.4251 10.9034C10.3872 10.937 10.3294 10.937 10.2926 10.9003L9.68928 10.2972C9.6516 10.2595 9.6516 10.1978 9.68928 10.1602L10.3572 9.49224C10.3572 9.49224 10.3598 9.4908 10.361 9.48984C10.3622 9.48888 10.3625 9.4872 10.3634 9.486L13.2199 6.62976L13.2202 6.62952ZM10.1062 8.72544L9.21864 7.83792L10.3699 6.6864L11.2567 7.57464L10.1062 8.72544ZM5.4936 3.74976L6.35928 2.88408L6.5376 3.0624L5.67192 3.92808L5.4936 3.74976ZM4.17552 6.84984C4.12104 6.79536 4.09128 6.72312 4.09128 6.64608C4.09128 6.56904 4.12104 6.4968 4.17552 6.44232L5.92128 4.69656C5.9232 4.69488 5.9256 4.6944 5.92752 4.69248C5.92944 4.69056 5.92992 4.68816 5.9316 4.68624L7.29624 3.3216C7.29816 3.31992 7.30056 3.31944 7.30224 3.31752C7.30392 3.3156 7.30464 3.3132 7.30632 3.31152L8.97312 1.64472C9.02928 1.58856 9.10296 1.56048 9.17688 1.56048C9.2508 1.56048 9.32424 1.58856 9.38064 1.64472L11.6834 3.94752C11.7958 4.05984 11.7958 4.24248 11.6834 4.3548L6.88608 9.1524C6.77352 9.26472 6.59112 9.26448 6.4788 9.1524L4.17576 6.84936L4.17552 6.84984ZM1.56 19.2557L5.08128 22.44H1.56V19.2557ZM7.42728 22.44H6.1548L1.70136 18.4128L2.81544 17.1127L3.01776 17.3052C3.01776 17.3052 3.01824 17.3052 3.01848 17.3057L7.19544 21.4826C7.19784 21.485 7.2012 21.4858 7.2036 21.4882C7.20648 21.4908 7.20744 21.4946 7.21032 21.4973L7.7772 22.0058L7.42752 22.4402L7.42728 22.44ZM13.4345 17.4293C12.9365 17.9294 12.306 18.2606 11.6102 18.3876L10.0934 18.6684C9.61848 18.7565 9.18744 18.9833 8.8464 19.3243L7.44984 20.719L3.77544 17.0446L5.022 15.798C5.38944 15.4274 5.59368 14.9383 5.5968 14.4218L5.6064 13.2312C5.6148 12.0456 6.02256 10.8886 6.75072 9.94968C6.9852 9.9336 7.21584 9.84048 7.39464 9.66144L8.70912 8.34696L9.59664 9.23448L9.18 9.65112C8.86176 9.9696 8.86176 10.4878 9.18 10.8062L9.78336 11.4094C9.89568 11.5217 10.0334 11.5922 10.1779 11.6254C10.1249 12.1476 9.79848 13.8691 7.78776 14.729C7.60488 14.8073 7.52016 15.019 7.5984 15.2016C7.65672 15.3382 7.78968 15.4202 7.9296 15.4202C7.97664 15.4202 8.02464 15.4109 8.07096 15.3912C9.85104 14.6299 10.5139 13.2852 10.7614 12.3874L11.0316 12.6576C11.1482 12.7745 11.2942 12.851 11.4528 12.8815C11.4828 13.0358 11.5572 13.1832 11.6767 13.3027L12.2798 13.9058C12.3967 14.0227 12.5426 14.0993 12.701 14.1298C12.7315 14.2884 12.8083 14.4343 12.925 14.551L13.5281 15.1541C13.6872 15.3134 13.8965 15.3931 14.1055 15.3931C14.3146 15.3931 14.5241 15.3134 14.6832 15.1541L15.1008 14.7365L15.6146 15.2503L13.4345 17.4293ZM21.1272 17.6558L20.2651 18.5177L20.0882 18.3408L20.9501 17.479L21.1272 17.6558ZM22.3622 15.049L20.6976 16.7134C20.6976 16.7134 20.6959 16.7143 20.6952 16.7148C20.6945 16.7153 20.6942 16.7165 20.6938 16.7172L19.3272 18.0838C19.3272 18.0838 19.325 18.0847 19.3243 18.0857C19.3236 18.0866 19.3231 18.0878 19.3224 18.0886L17.58 19.8307C17.4713 19.9394 17.2814 19.9394 17.1727 19.8307L14.8793 17.5373C14.7535 17.411 14.7216 17.1662 14.8186 17.069L18.0403 13.8473L19.6001 12.2873C19.6973 12.1903 19.9423 12.2222 20.0683 12.348L22.3615 14.6412C22.4738 14.7535 22.4741 14.9364 22.3615 15.0487L22.3622 15.049Z" fill="#CE2B21"/>
</g>
<defs>
<clipPath id="clip0_13_82">
<rect width="24" height="24" fill="white"/>
</clipPath>
</defs>
</svg>
