<svg width="23" height="23" viewBox="0 0 23 23" fill="none" xmlns="http://www.w3.org/2000/svg">
<g clip-path="url(#clip0_21_9)">
<path d="M20.125 0H2.875C2.1125 0 1.38124 0.302901 0.842068 0.842068C0.302901 1.38124 0 2.1125 0 2.875L0 20.125C0 20.8875 0.302901 21.6188 0.842068 22.1579C1.38124 22.6971 2.1125 23 2.875 23H20.125C20.8875 23 21.6188 22.6971 22.1579 22.1579C22.6971 21.6188 23 20.8875 23 20.125V2.875C23 2.1125 22.6971 1.38124 22.1579 0.842068C21.6188 0.302901 20.8875 0 20.125 0ZM1.4375 5.54444C1.4375 4.8645 2.0815 4.3125 2.875 4.3125H20.125C20.9185 4.3125 21.5625 4.8645 21.5625 5.54444V20.3306C21.5625 21.0105 20.9185 21.5625 20.125 21.5625H2.875C2.0815 21.5625 1.4375 21.0105 1.4375 20.3306V5.54444Z" fill="#CE2B21"/>
<path d="M9.34375 10.0625C9.725 10.0625 10.0906 9.91105 10.3602 9.64147C10.6298 9.37188 10.7812 9.00625 10.7812 8.625C10.7812 8.24375 10.6298 7.87812 10.3602 7.60853C10.0906 7.33895 9.725 7.1875 9.34375 7.1875C8.9625 7.1875 8.59687 7.33895 8.32728 7.60853C8.0577 7.87812 7.90625 8.24375 7.90625 8.625C7.90625 9.00625 8.0577 9.37188 8.32728 9.64147C8.59687 9.91105 8.9625 10.0625 9.34375 10.0625ZM13.6562 10.0625C14.0375 10.0625 14.4031 9.91105 14.6727 9.64147C14.9423 9.37188 15.0938 9.00625 15.0938 8.625C15.0938 8.24375 14.9423 7.87812 14.6727 7.60853C14.4031 7.33895 14.0375 7.1875 13.6562 7.1875C13.275 7.1875 12.9094 7.33895 12.6398 7.60853C12.3702 7.87812 12.2188 8.24375 12.2188 8.625C12.2188 9.00625 12.3702 9.37188 12.6398 9.64147C12.9094 9.91105 13.275 10.0625 13.6562 10.0625ZM17.9688 10.0625C18.35 10.0625 18.7156 9.91105 18.9852 9.64147C19.2548 9.37188 19.4062 9.00625 19.4062 8.625C19.4062 8.24375 19.2548 7.87812 18.9852 7.60853C18.7156 7.33895 18.35 7.1875 17.9688 7.1875C17.5875 7.1875 17.2219 7.33895 16.9523 7.60853C16.6827 7.87812 16.5312 8.24375 16.5312 8.625C16.5312 9.00625 16.6827 9.37188 16.9523 9.64147C17.2219 9.91105 17.5875 10.0625 17.9688 10.0625ZM5.03125 14.375C5.4125 14.375 5.77813 14.2235 6.04772 13.954C6.3173 13.6844 6.46875 13.3187 6.46875 12.9375C6.46875 12.5563 6.3173 12.1906 6.04772 11.921C5.77813 11.6515 5.4125 11.5 5.03125 11.5C4.65 11.5 4.28437 11.6515 4.01478 11.921C3.7452 12.1906 3.59375 12.5563 3.59375 12.9375C3.59375 13.3187 3.7452 13.6844 4.01478 13.954C4.28437 14.2235 4.65 14.375 5.03125 14.375ZM9.34375 14.375C9.725 14.375 10.0906 14.2235 10.3602 13.954C10.6298 13.6844 10.7812 13.3187 10.7812 12.9375C10.7812 12.5563 10.6298 12.1906 10.3602 11.921C10.0906 11.6515 9.725 11.5 9.34375 11.5C8.9625 11.5 8.59687 11.6515 8.32728 11.921C8.0577 12.1906 7.90625 12.5563 7.90625 12.9375C7.90625 13.3187 8.0577 13.6844 8.32728 13.954C8.59687 14.2235 8.9625 14.375 9.34375 14.375ZM13.6562 14.375C14.0375 14.375 14.4031 14.2235 14.6727 13.954C14.9423 13.6844 15.0938 13.3187 15.0938 12.9375C15.0938 12.5563 14.9423 12.1906 14.6727 11.921C14.4031 11.6515 14.0375 11.5 13.6562 11.5C13.275 11.5 12.9094 11.6515 12.6398 11.921C12.3702 12.1906 12.2188 12.5563 12.2188 12.9375C12.2188 13.3187 12.3702 13.6844 12.6398 13.954C12.9094 14.2235 13.275 14.375 13.6562 14.375ZM17.9688 14.375C18.35 14.375 18.7156 14.2235 18.9852 13.954C19.2548 13.6844 19.4062 13.3187 19.4062 12.9375C19.4062 12.5563 19.2548 12.1906 18.9852 11.921C18.7156 11.6515 18.35 11.5 17.9688 11.5C17.5875 11.5 17.2219 11.6515 16.9523 11.921C16.6827 12.1906 16.5312 12.5563 16.5312 12.9375C16.5312 13.3187 16.6827 13.6844 16.9523 13.954C17.2219 14.2235 17.5875 14.375 17.9688 14.375ZM5.03125 18.6875C5.4125 18.6875 5.77813 18.536 6.04772 18.2665C6.3173 17.9969 6.46875 17.6312 6.46875 17.25C6.46875 16.8688 6.3173 16.5031 6.04772 16.2335C5.77813 15.964 5.4125 15.8125 5.03125 15.8125C4.65 15.8125 4.28437 15.964 4.01478 16.2335C3.7452 16.5031 3.59375 16.8688 3.59375 17.25C3.59375 17.6312 3.7452 17.9969 4.01478 18.2665C4.28437 18.536 4.65 18.6875 5.03125 18.6875ZM9.34375 18.6875C9.725 18.6875 10.0906 18.536 10.3602 18.2665C10.6298 17.9969 10.7812 17.6312 10.7812 17.25C10.7812 16.8688 10.6298 16.5031 10.3602 16.2335C10.0906 15.964 9.725 15.8125 9.34375 15.8125C8.9625 15.8125 8.59687 15.964 8.32728 16.2335C8.0577 16.5031 7.90625 16.8688 7.90625 17.25C7.90625 17.6312 8.0577 17.9969 8.32728 18.2665C8.59687 18.536 8.9625 18.6875 9.34375 18.6875ZM13.6562 18.6875C14.0375 18.6875 14.4031 18.536 14.6727 18.2665C14.9423 17.9969 15.0938 17.6312 15.0938 17.25C15.0938 16.8688 14.9423 16.5031 14.6727 16.2335C14.4031 15.964 14.0375 15.8125 13.6562 15.8125C13.275 15.8125 12.9094 15.964 12.6398 16.2335C12.3702 16.5031 12.2188 16.8688 12.2188 17.25C12.2188 17.6312 12.3702 17.9969 12.6398 18.2665C12.9094 18.536 13.275 18.6875 13.6562 18.6875Z" fill="#CE2B21"/>
</g>
<defs>
<clipPath id="clip0_21_9">
<rect width="23" height="23" fill="white"/>
</clipPath>
</defs>
</svg>
